<svg id="Layer_1" data-name="Layer 1" xmlns="http://www.w3.org/2000/svg" viewBox="0 0 1698.26 1324.08"><path d="M1796.82,1184.07c-13.92,115.44-54.17,228.19-114.39,327.81-2.38,3.34-4.78-2.56-6.3-4.12-9.8-13.27-20.22-26.06-32.53-37.09-41.82-38.25-85.59-75.51-138.49-97.45-9.54-5.44-14.43-16.59-24.36-22a130.85,130.85,0,0,0-57.19-23.2c-15.37-3-30.78-5.78-46.09-9-20.09-2.09-83.54-29.76-96.16-13.91-1.06,2-2.78-.1-3.82-1-15-14-24.45,1-38.93.42-15.5-4.79-16.84-29.35-39-28.12-19.41,1.3-32.58-18.61-52.2-16.22-5.09-.16-8.63,2.36-12,6-16.59-37.67-6.81-79.84-3.63-119.46-.35-7,4.94-12.27,8.08-18.07a379.85,379.85,0,0,0,38.84-84.72c.93-2.37,2.48,0,3.33,1.06,9,11.29,26.75,14,37.6,4.21,31.32-31.25,18.5-32.45,29.71-65.84,5.37-12.29,9.2-25.21,5.92-38.6-3.1-15.67-10.27-30.48-9.36-46.8,1.81-20.61,9.79-42.17,1.15-62.38-1.89-3.92,2.81-7.09,4.23-10.49a88.66,88.66,0,0,0,12.26-30.51c1.91-6.42,1.18-14.27,5.92-19.42a9.74,9.74,0,0,0,2.66-5.5,85.75,85.75,0,0,0,1.27-27.67c-.21-1.84-.3-3.4,1-4.92,4.74-6.51,2.19-15.47.84-22.77-.88-4.6-8.44-27.84-.53-15.28,1,1.48,1.12,3.77,3.55,4,1-6.2-4-11.62-3.12-18,12.66,14.25.49-11.28.69-16.62,2.42-4.51,8.63,8.48,10.67,10.18,2.28,3.68,6.82,8.5,3.28-1.61-2.33-4.8-.24-10.12-2.7-14.87-.8-1.53.66-2.33,2-1.49,3,1.47,3.09,1.45,3.12-2-.55-4,3.23-7,1.89-11.06-.23-1.44-1.14-4.45,1.4-3.83,3.29,1,7.28,2.67,9.28-1.47,3.54-2.77,5.56-6.09,5.57-10.58,2.91-22.86-8.68-43.8-16.26-64.11,3.59-.79,21,34.69,22.07,28.09-5.31-27.91-25.55-49.85-40.25-73.3,1.4-1.07,3.57-1,2.12-2.8-1.1-1.75-2.26-3.48-3.51-5.13-14.39-18.78-35-30.94-55.82-41.11,28.25,6,51.28,26.86,72.46,45.59,5.22.9,1.26-5.67-.54-7.44-17.37-23.3-42-39.14-67.4-52,13.31,1.89,25.58,9.83,38.06,14.88,4.95,2.47,9.63,3.22,5.54-3.7,2.83-1,11.41,7.24,14.92,8.8,9.5,6,4.51-1.8.07-5.1-19.47-17.78-43.28-29.46-67.9-38.12,0-1.85,13-.12,15.15.24,12.11-1-16.1-10.25-18.27-11.42-9.31-4.36,6.71-1.14,7.11-4.49-1.36-4.2-7.93-5.62-11.77-7.29-9-3.84-20.38-2.74-28.68-6.52-2.34-4.19-8.46-2.13-11.32-4.82,15.11-2.27,32.62,2.14,48.47.76,13-7.71-24.53-14-29.35-14a157.61,157.61,0,0,0-26.34-.55c-13.12,1.38-25.18-5.35-38.26-5.46-4.07-.61-8.91.06-12.58-1.45a.8.8,0,0,1,.66-1c8.71-1.93,17.79-2,26.34-4.58-.67-4.78-19.3-3.81-21.15-5.83,7-10.05,33.73-6.51,25.57-13.24,5.41-2.87,15,1,19.94-2.94-11.49-4.91-30.56.38-43.42.73-10.88,1.05-21.1,5-31.62,7.67-1.09.26-2.82.65-3.33-.7,4.48-4.42,36.43-12.52,15.78-16.84a67.63,67.63,0,0,0-15.76-.92c-1.57,0-3.38,1.33-4.8-.46,2.75-3.1,7.52-3.31,10.6-6.17,5.28-8.35-30.81-.86-34.48-1.46.25-3.44,5.6-4.37,6.52-7.8.88-4.11-5.26-4.52-7.74-6.45-3.79-1.14-7.85.92-11.74,1.15,1.34-4,7.85-3.66,10.31-7.26,9-10.61-28.22,5.15-30.15,4.24,3.9-8.45,21.58-11,25.26-18.3-6.19-3.33-14.29,2.76-21.18,2.56a34.23,34.23,0,0,0-16.42,4.62c-2.67.91-5.42,3.73-8.27,3.11,4-5.17,10.81-7.94,15.84-12.21.83-.89,3-1.55,2.47-3-3-2.55-31.48,16.94-26.86,10.14,9.76-11.12,23.9-15.86,38-18.8,1.68-.26,6-1.79,2.89-3.46-8.5-.36-17.23,1.76-25.45,3.85-6.84,1.65-14.46,6.27-20.86,6.65,2.3-3.18,6.71-4.05,9.78-6.48,2.06-3.16-4.53-1.64-5.89-1a125.47,125.47,0,0,0-31,13.8c-2.67,1.15-5.48,4.76-8.34,4.06,1.08-2.24,8.23-7.35,3.63-7.71-1.16-.15-2.63,1.31-3.34,0-.47-.89,1.13-1.69,1.81-2.53,2.21-1.61,1.71-4.92-2.1-3-11.35,5.25-21.2,13.25-29.9,22.15-1.16.92-2.42,3.2-4.12,2.7-1.4-3.07,6.15-9.22,7.82-12.39,1.46-2.25-3.57-1.41-1.49-4.44,2.06-5.87-6.16-3.31-8.56-1.09-6.44,4.45-13.12,8.59-18.94,13.88a9.79,9.79,0,0,1-6.94,2.76c-5.22-1.4-13.87,5.91-17.18,2.37,6.91-8.09,19-11.85,27-19.28-.92-9.54-42.68,19.06-46.47,23.67-2.21,2-4.34,3.18-7.31,1.85-18.94,2.26-35.32,17.09-49.27,29.5A110.62,110.62,0,0,0,771,384.72c-1.43,3-2.73,6-6.51,3.52a102.34,102.34,0,0,0-69.77-9.42c-10.21,1.94-19.38,6.33-27.94,12.09a1.55,1.55,0,0,1-2.42-.28c-.47-1.14-2.34-1.14-2.3.25-.88,4.94,9.36,18,4.92,19.63-9.63,2.37-13.1,5.08-19.87-4.51-2.32-1.6-16.56-25.1-15.41-14.94.24,3.94,23.51,29.92,13.11,27.73-6.44-2.16-8.48-9.66-13.7-12.91-2.06,7.31-5.39-4.5-9.94-4.13-4-1.54-8.07-15-11.92-15.45,1.89,12.26,11.31,22.48,17.28,33.22,1.91,1.71,1.69,8.22-1.83,5.84-1-1-1.31-2.53-2.95-3.36-8,15-5.92-3.07-11.71,1.09-3.89,3.15-7-34.17-10.51-36l-1.49,2.8c-3.45-9.32-1.17-21.46-2-31.73-.28-1.37.65-3.7-.82-4.43-9.06,25.75-3,56.07.68,82.56-7.56-2.8-6.56-19.76-10.9-26.52-7.82-6.31-3.79,16.36-4.21,19.85-.6,2.21-2.17-.19-2.88-1-9.32-3.6,3.94,28.38-.94,30.7-12,17.11-9.09,48.89-2.69,68.17,2.14,5.44-1.06,3.74-4.28,1.91-6,0,5.88,10.08,7,12.08,7.27,6.75-7,1-3.16,6.86,1.54,3.26,7.57,5.52,6,9.5a5.2,5.2,0,0,0-.54,3.71c.08.47.27,1.12,0,1.39-2.67,3.73,4.77,12.45,7.26,15.61-4.36,2.25-4.36,2.26-2,5.92,1.6,3.74,6.75,6.74,4.86,11.22-.73,1.26.42,2.75.92,4.07,1.79,3.24-4,5.1-1,8,11.23,9.79,5.1,11.9,9.63,21.83,1,1.19,1,3,.92,4.61-.75,5,1.75,9.62,1,14.7.56,5.26,4.81,2.77,1,10.83-4.09,4.36,2,9.52-.11,14.63-.4,1.52.38,2.78,1.17,4,.51.79,1.27,1.58.73,2.61-1.41,3.82.41,7.9,1.84,11.26-2.06,2.16-13-4.12-11.11.53,4,2.71,12,5.16,10.5,11.32a9.5,9.5,0,0,0-.46,6.11c.4,1.56-.5,2.71-1.07,4-2,4.55-2,4.65,1.83,7.7a5.62,5.62,0,0,1,2,3.67,105.11,105.11,0,0,0,9.78,28.91c-14.7,3.65-20.32,19.93-22.62,33.36-3.16,18.16,2.55,36.26,1.15,54.53a93.77,93.77,0,0,1-5.29,28.16c-10.3,26.14-4.61,53.94,3.56,79.77,4.38,15.4,14.25,28.78,25.13,40.29,10.5,9.69,29.84,6.45,37.76-5.12.81-1.17,1.45-2.47,2.89-3.08,5.81-1.82,3.55,8,4.81,11.25,1.67,13.8,3.14,27.64,5.06,41.41,3.94,26.94,14.67,52.47,28.46,75.81,1.18,3.13,5.32,6.31,4.07,9.72-1,2.23,2.16,4.17,3.33,5.85,4,5,11.88,8.43,11.37,15.68-.84,12.19.5,24.28,1.9,36.35,4.11,38.06,11,76.22,8.36,114.62-.67,6.67-6.24,22.26-13.13,23.43-3.59-.54-6,2.64-8.68,4.45-3.73,2.86-8.74,2.9-13,4.5-10.7,3.91-19-7-20.85-16.43-.77-2.93-.43-7.25-4.29-7.69-48.9,1.84-95.78,24.06-142.17,38.56-40.14,10.88-73,37.1-110.2,54.35-7.32,3.31-14.79,7-17.64,15.1-4.66,11-9.66,21.93-14.5,32.88a4.53,4.53,0,0,1-3,2.83c-12.73,4-24.4,10.32-36.22,16.31-25.12,12.73-48.55,28.81-68.36,48.87a266.79,266.79,0,0,0-26,29.45c-4.27,5.6-4.31,5.55-8.07-.18a849.14,849.14,0,0,1-125-310.55q-5.09-27.1-8-54.54c-.8-3.37.17-8.2-3.93-9.5C54.14,648.55,460.78,202.15,983.2,220.38c372,7.44,713.51,286.08,797.66,648.19C1808.83,971.22,1792.92,1078.93,1796.82,1184.07Z" transform="translate(-99.6 -219.84)"/></svg>